<?xml version="1.0" encoding="UTF-8"?>
<svg id="Layer_2" xmlns="http://www.w3.org/2000/svg" viewBox="0 0 502.02 162.1">
  <defs>
    <style>
      .cls-1 {
        fill: #fff;
      }
    </style>
  </defs>
  <g id="Layer_1-2" data-name="Layer_1">
    <g>
      <path class="cls-1" d="M.13,57.48c.05-1.58.11-3.15.16-4.73.08-1.73.16-3.46.24-5.19.09-1.86.13-3.73.43-5.58.02-.14,0-.29.01-.43.23-1.02.26-2.06.44-3.09.36-2.06.83-4.09,1.39-6.09.19-.68.38-1.35.57-2.03,2.43-7.12,6.28-13.31,11.94-18.33.13-.12.26-.25.38-.38,1.94-1.69,4.04-3.18,6.22-4.53,1.38-.85,2.83-1.56,4.33-2.17,2.99-1.22,6.04-2.25,9.2-2.93,3.35-.72,6.74-1.16,10.16-1.37,5.9-.37,11.8-.53,17.71-.56.04,0,.07-.01.11-.02,3.53-.01,7.07-.03,10.6-.04,9.93-.02,19.86-.03,29.79.11,3.62.05,7.24.22,10.86.39,5.01.24,9.95.85,14.79,2.19.76.21,1.53.44,2.29.67,1.91.72,3.83,1.41,5.66,2.31,7.35,3.61,13.08,8.98,17.35,15.93.09.15.2.3.3.45,1.34,2.47,2.51,5.01,3.42,7.67,1.27,3.7,2.08,7.49,2.57,11.36.49,3.93.62,7.87.76,11.82,0,.16.03.32.04.49.09,3.75.18,7.5.18,11.25,0,7.84.03,15.69.05,23.53,0,.23.02.47.03.7-.01,1.01-.04,2.02-.04,3.04-.04,5.75-.01,11.51-.26,17.26,0,.13,0,.25,0,.38-.15,2.82-.21,5.64-.46,8.46-.22,2.48-.56,4.95-1.03,7.4-.66,3.42-1.67,6.73-3,9.94-.01.03-.01.07-.02.11-.77,1.59-1.49,3.2-2.38,4.73-1.66,2.82-3.65,5.37-5.91,7.72-.15.16-.29.32-.43.48-1.78,1.7-3.61,3.35-5.64,4.76-1.84,1.29-3.78,2.41-5.81,3.38-.14.07-.28.15-.42.23-1.95.81-3.91,1.6-5.93,2.22-3.8,1.17-7.69,1.88-11.64,2.25-1.42.13-2.85.24-4.27.32-1.58.09-3.17.11-4.75.23-2.11.15-4.22.03-6.33.21-2.55.01-5.1.02-7.65.04-1.19,0-2.38.03-3.57.05-2.85,0-5.69,0-8.54-.01-5.78-.01-11.57-.02-17.35-.03-.14,0-.29,0-.43,0-1.43-.02-2.86-.04-4.3-.05-5.64-.04-11.28-.2-16.9-.57-5.63-.37-11.13-1.4-16.44-3.35-3.97-1.46-7.62-3.47-10.97-6.04-.41-.31-.87-.57-1.22-.96-.38-.32-.8-.6-1.15-.95-1.39-1.4-2.82-2.77-4.12-4.25-1.87-2.15-3.39-4.55-4.76-7.05-1.37-2.49-2.35-5.13-3.23-7.82-.07-.21-.15-.4-.26-.59-.81-3-1.41-6.05-1.86-9.12-.3-2.21-.42-4.44-.54-6.66-.3-5.72-.43-11.44-.46-17.16-.02-3.19-.05-6.38-.07-9.56,0-.05.02-.11.02-.16,0-5.19,0-10.38,0-15.57,0-.05-.01-.11-.02-.16.06-1.67.05-3.33.01-5,.11-2.18.08-4.36.08-6.55.01-1,.03-2.01.04-3.01ZM14.71,63.54c0,1.74,0,3.48-.01,5.23,0,.16-.02.32-.02.49,0,4.03-.02,8.07-.02,12.1,0,.27.02.54.03.81,0,.18-.03.36-.03.54,0,3.98,0,7.96.02,11.94,0,2.01.03,4.02.04,6.02-.04,1.24.01,2.49.08,3.73-.05,1.99.08,3.98.17,5.97.04.79-.01,1.59.13,2.38,0,.01-.03.03-.02.04,0,.03.02.05.03.08,0,.06,0,.13.01.19,0,.16-.01.33,0,.49.09,2.43.3,4.84.67,7.24.49,3.15,1.3,6.21,2.59,9.14.03.08.06.17.09.25,2.03,4.67,5.27,8.34,9.42,11.21,3.28,2.27,6.98,3.55,10.85,4.42,4.11.92,8.29,1.12,12.47,1.3,5.04.21,10.08.29,15.12.32,3.35.02,6.71,0,10.06,0,.11,0,.22.02.33.02,5.96,0,11.91,0,17.87,0,1.66,0,3.33-.04,4.99-.07.07.04.13.03.19-.01.15,0,.31,0,.46,0,.03,0,.05,0,.08,0,.31,0,.61,0,.92-.01.09.04.18.04.26,0,.21,0,.41,0,.62,0l.02.02.02-.02c.18,0,.36,0,.54,0,3.7-.03,7.39-.19,11.09-.36,2.37-.11,4.73-.32,7.08-.68,3.41-.52,6.68-1.48,9.82-2.91,3.29-1.43,6.03-3.6,8.41-6.25.46-.39.82-.87,1.19-1.34,1.73-2.17,2.98-4.57,4-7.16,1.51-3.87,2.21-7.87,2.54-11.98.23-1.49.23-2.99.3-4.49.28-5.96.37-11.92.37-17.88,0-2.08-.01-4.17-.02-6.25.01-.2.03-.4.03-.59,0-5.07,0-10.13,0-15.2,0-.18-.02-.36-.03-.54,0-.2.03-.4.03-.6.01-7.84-.06-15.69-.48-23.52-.13-2.35-.34-4.69-.77-7.01-.22-1.37-.56-2.71-.93-4.04-.82-2.94-1.91-5.74-3.61-8.29-.95-1.42-1.92-2.82-3.27-3.91-.11-.25-.26-.49-.49-.63-.65-.4-1.1-1.02-1.69-1.49-1.12-.92-2.26-1.81-3.53-2.51-2.46-1.36-5.09-2.34-7.8-3.09-1.1-.3-2.22-.48-3.34-.69-1.17-.22-2.35-.38-3.53-.49-1.08-.1-2.17-.17-3.26-.25-1.29-.1-2.58-.05-3.87-.2-.56-.06-1.14.01-1.71-.07-.42-.06-.89-.18-1.32.05,0-.12-.06-.14-.15-.07-.16-.11-.35-.08-.53-.09-1.81-.04-3.62-.11-5.44-.12-6.14-.04-12.29-.06-18.43-.07-1.96,0-3.91.02-5.87.04-1.2-.06-2.4-.04-3.6-.01-.02-.03-.05-.04-.08-.02-.11-.01-.22-.03-.32-.03-6.86.06-13.73-.02-20.58.31-1.33.06-2.66.09-3.98.18-1.25.09-2.5.15-3.76.23-1.57.11-3.13.29-4.67.57-5.18.94-10.07,2.61-14.24,5.97-1.67,1.34-3.17,2.86-4.48,4.56-.06.06-.13.12-.19.19-1.46,1.88-2.61,3.93-3.48,6.14-.69,1.74-1.33,3.49-1.66,5.33-.45,1.57-.68,3.17-.87,4.78-.16,1.38-.28,2.77-.42,4.15-.07,1.85-.14,3.7-.21,5.54-.09,1.71-.19,3.41-.13,5.12-.11,1.96-.13,3.92-.1,5.88Z"/>
      <path class="cls-1" d="M45.93,58.68c1.09-1.73,2.39-3.3,3.64-4.91.43-.56.97-1.04,1.46-1.56,1.35-1.38,2.81-2.65,4.3-3.88,1.26-1.03,2.57-1.97,3.98-2.79.04-.03.08-.06.12-.1.04.01.07,0,.09-.03,1.27-.7,2.5-1.48,3.82-2.08,3.61-1.63,7.36-2.83,11.29-3.41,8.02-1.2,15.76-.23,23.2,3.02.13.06.27.1.41.14,1.82.92,3.64,1.84,5.35,2.96,6.09,3.97,10.86,9.15,14.28,15.57.09.17.2.34.31.51,0,.03,0,.06.03.09.03.04.05.09.08.13.93,2.05,1.84,4.11,2.51,6.27,1.1,3.56,1.71,7.2,1.87,10.93,0,1.01,0,2.01,0,3.02-.08,2.02-.32,4.03-.65,6.02-.99,5.22-2.86,10.09-5.7,14.59-.48.76-1,1.51-1.5,2.26-1.69,2.25-3.53,4.37-5.61,6.27-.57.52-1.16,1.04-1.74,1.55-1.67,1.28-3.36,2.52-5.17,3.59-4.6,2.72-9.54,4.5-14.82,5.32-4.62.72-9.23.62-13.84-.16-1.25-.21-2.45-.58-3.68-.8-2.41-.74-4.77-1.58-7.06-2.63-1.36-.75-2.75-1.44-4.05-2.28-1.55-1-3.06-2.04-4.45-3.24-1.44-1.24-2.85-2.51-4.11-3.95-1.12-1.29-2.21-2.59-3.2-3.98-3.6-5.08-5.9-10.7-7.01-16.81-.34-1.85-.52-3.73-.6-5.61-.02-2.12-.02-4.23.24-6.34.28-2.21.6-4.42,1.25-6.56.17-.56.33-1.12.49-1.68.72-1.94,1.47-3.87,2.39-5.73.63-1.27,1.39-2.47,2.08-3.71ZM67.11,57.96c-2.72,1.59-5.03,3.65-7.01,6.08-1.55,1.9-2.85,3.95-3.77,6.24-.42.73-.68,1.54-.94,2.33-1.31,4.15-1.69,8.37-1.01,12.68.39,2.43,1.08,4.76,2.13,6.99.05.13.1.27.16.4,1.09,2.3,2.48,4.41,4.18,6.31,2.63,2.93,5.75,5.21,9.36,6.8,4.37,1.92,8.94,2.6,13.68,2.12,1.58-.16,3.15-.42,4.66-.95.12-.02.25-.04.37-.07,2.3-.66,4.42-1.71,6.45-2.95,1.64-1,3.11-2.21,4.49-3.53.69-.66,1.26-1.42,1.9-2.12,1.38-1.5,2.45-3.2,3.34-5.03.11-.2.24-.4.34-.61.92-1.9,1.52-3.9,1.99-5.96.7-3.06.78-6.13.37-9.22-.03-.21-.04-.43-.08-.64-1.57-8.9-6.33-15.52-14.29-19.75-5.84-3.11-12.07-3.77-18.51-2.32-2.78.62-5.41,1.68-7.83,3.22Z"/>
      <path class="cls-1" d="M133.09,33.5c.63,1.46,1.01,2.97.97,4.58-.11,4.79-3.9,8.89-8.64,9.37-4.77.47-9.05-2.34-10.41-6.9-.72-2.4-.52-4.76.57-7.04.59-1.02,1.25-1.98,2.11-2.81,1.32-1.28,2.88-2.06,4.67-2.41,4.35-.85,8.43,1.06,10.58,4.94.05.09.12.18.17.27Z"/>
    </g>
    <path class="cls-1" d="M190.01,152.13c18.54-21.57,36.4-42.35,54.32-63.19-17.88-26.05-35.69-51.99-54-78.67,13.71,0,26.61-.11,39.51.16,1.46.03,3.23,2,4.25,3.48,10.32,14.84,20.52,29.78,30.76,44.68.73,1.06,1.53,2.07,2.58,3.47,7.52-8.74,14.88-17.28,22.23-25.84,6.83-7.95,13.18-16.39,20.69-23.64,2.65-2.56,8.08-2.24,12.24-3.24.32.56.64,1.12.95,1.68-16.87,19.66-33.74,39.31-50.76,59.13,18.61,27.11,37.18,54.15,56.29,81.99-8.95,0-17.27-.85-25.34.2-11.82,1.55-19.04-2.56-25.11-12.95-8.52-14.56-18.9-28.04-28.81-42.46-6.46,7.44-12.75,14.63-18.98,21.89-8.88,10.36-17.65,20.81-26.63,31.09-1.03,1.18-2.99,1.92-4.61,2.12-2.77.34-5.62.09-9.6.09ZM206.96,19.34c28.71,41.17,56.76,81.41,84.86,121.61.69.99,1.98,2.17,3.03,2.22,5.52.22,11.06.1,17.36.1-28.72-41.16-56.77-81.4-84.92-121.57-.81-1.15-2.59-2.18-3.98-2.25-5.1-.27-10.23-.11-16.36-.11Z"/>
    <path class="cls-1" d="M501.96,118.65c-.02,5.17-.11,10.39-1.88,15.36-3.44,9.63-10.15,15.73-20.04,18.31-3.53.92-7.16,1-10.77,1.1-9.79.28-19.59.06-29.38.12-.17,0-.34-.05-.51-.07.02-.45.07-.9.07-1.35,0-16.49.01-32.98-.02-49.47,0-.85.21-1.11,1.09-1.1,4.81.04,9.63-.03,14.43.05,1.11.02,1.32-.41,1.44-1.33.77-6.01,1.55-12.01,2.4-18.01.14-.96.03-1.25-1.02-1.24-5.75.05-11.5,0-17.25.04-.89,0-1.1-.25-1.09-1.11.04-2.82-.02-5.65-.01-8.47.01-2.86.18-5.72,1.26-8.42,1.51-3.81,4.35-5.83,8.43-6.15,3.2-.24,6.4-.23,9.61-.21.79.01,1-.23,1-1.01-.03-5.12-.03-10.25-.01-15.37,0-.63-.16-.9-.83-1.02-6.51-1.17-13.01-2-19.63-.97-5.21.8-10.06,2.36-13.88,6.19-5.23,5.25-7.59,11.77-7.84,19.05-.18,5.4-.09,10.8-.03,16.2,0,1.12-.34,1.3-1.35,1.29-5.26-.05-10.52,0-15.79-.04-.82,0-1.14.15-1.14,1.07.05,6.13.04,12.27.01,18.4-.01.81.19,1.06,1.04,1.06,5.26-.04,10.52-.02,15.79-.02q1.36,0,1.36,1.34c-.03,16.48-.05,32.97-.11,49.45,0,.86.2,1.13,1.09,1.12,6.49-.03,12.97-.02,19.45,0,.35,0,.69.04,1.03.07-.38.02-.76.05-1.14.05-15.06,0-30.12.06-45.18-.04-4.89-.04-9.84-.02-14.6-1.45-10.54-3.16-17.17-10.12-19.87-20.79-.92-3.6-1.05-7.3-1.05-10.98-.05-25.31-.07-50.61-.05-75.92,0-4.51-.01-9.06,1.09-13.49,2.88-11.56,10.21-18.66,21.77-21.39,3.33-.79,6.76-.86,10.17-.9,25.58-.27,51.17-.1,76.75-.08,4.71,0,9.48.04,14.07,1.41,11.24,3.36,18.01,10.86,20.3,22.32.87,4.35.86,8.79.86,13.21,0,24.4.04,48.8-.04,73.2Z"/>
  </g>
</svg>