<?xml version="1.0" encoding="UTF-8"?>
<svg id="Layer_2" xmlns="http://www.w3.org/2000/svg" viewBox="0 0 572 97">
  <defs>
    <style>
      .cls-1 {
        fill: #231f20;
      }

      .cls-2 {
        fill: #ffcd5c;
      }
    </style>
  </defs>
  <g id="Layer_2-2" data-name="Layer_2">
    <polyline class="cls-2" points="0 97 31.56 0 567 13 572 96"/>
  </g>
  <g id="Layer_1-2" data-name="Layer_1">
    <g>
      <path class="cls-1" d="M102.75,44.37c0,7.09-1.86,12.83-5.58,17.23-3.98,4.66-9.48,6.99-16.48,6.99-1.17,0-2.94-.07-5.3-.2-2.36-.13-4.12-.2-5.3-.2-1.26,0-1.89.54-1.89,1.63,0,1.35.13,3.35.4,6.02.26,2.67.4,4.66.4,5.98,0,.67-.31,1.01-.92,1.01-1.79,0-4.47-.05-8.04-.15-3.57-.1-6.26-.15-8.04-.15-.85,0-1.27-.42-1.27-1.27,0-3.25.05-8.14.15-14.66.1-6.52.15-11.4.15-14.66,0-9.2-.4-18.87-1.19-29l-.04-.62c-.06-.56.38-.89,1.32-1.01,2.29-.29,7.32-.44,15.12-.44,4.6,0,9.01.06,13.23.18,6.94.21,12.54,2.39,16.79,6.55,4.34,4.28,6.5,9.87,6.5,16.79ZM85.21,45.08c0-6.83-3.33-10.24-9.98-10.24-4.69,0-7.15.26-7.38.79-.21.38-.31,3.76-.31,10.15,0,.91.04,2.25.11,4.02.07,1.77.11,3.11.11,4.02,0,.59,2.64.88,7.91.88,6.36,0,9.54-3.21,9.54-9.62Z"/>
      <path class="cls-1" d="M166.73,81.42c0,.53-.37.89-1.1,1.1-.88.23-3.6.35-8.17.35-4.19,0-6.88-.12-8.09-.35-1-.2-1.63-.86-1.89-1.98-1-4.22-1.77-6.47-2.33-6.77-.47-.2-4.39-.31-11.78-.31-4.98,0-7.63.13-7.95.4-.5.47-1.05,2.04-1.67,4.7-.56,2.43-1.23,3.75-2.02,3.96-1,.23-4.34.35-10.02.35-4.48,0-6.72-.42-6.72-1.27,0-.76,3.31-10.12,9.93-28.08,7.18-19.42,11.07-30.1,11.69-32.04.35-1.11.76-1.67,1.23-1.67.79,0,2.01.07,3.67.22,1.65.15,2.89.22,3.71.22s1.96-.05,3.49-.15c1.54-.1,2.69-.15,3.45-.15.56,0,1.07.48,1.54,1.45,1.44,3.08,5.62,13.62,12.57,31.64,6.97,18.13,10.46,27.6,10.46,28.39ZM135.58,41.38c-.62,1.29-1.66,4.09-3.12,8.39-1.58,4.57-2.37,7.25-2.37,8.04,0,.53.88.82,2.64.88.91.06,2.4.09,4.48.09,1.93,0,3-.23,3.21-.7.06-.15.09-.35.09-.62,0-.97-.67-3.63-2.02-8-1.32-4.22-2.29-6.91-2.9-8.09Z"/>
      <path class="cls-1" d="M222.54,72.58c0,.47-.31,1.08-.92,1.85-5.39,6.42-12.55,9.62-21.49,9.62s-16.55-3.12-22.24-9.36c-5.54-6.04-8.31-13.65-8.31-22.85s2.71-16.46,8.13-22.68c5.65-6.5,12.85-9.76,21.58-9.76,9.49,0,16.93,2.92,22.32,8.75.59.64.88,1.22.88,1.71,0,.56-1.02,2.62-3.05,6.2-2.04,3.57-3.32,5.58-3.85,6.02-.23.23-.53.35-.88.35-.15,0-.88-.59-2.2-1.76-1.58-1.41-3.14-2.5-4.66-3.3-2.31-1.17-4.72-1.76-7.21-1.76-4.31,0-7.75,1.61-10.33,4.83-2.37,2.99-3.56,6.68-3.56,11.07s1.19,8.19,3.56,11.21c2.58,3.28,6.02,4.92,10.33,4.92,2.55,0,4.97-.56,7.25-1.67,1.49-.73,3.02-1.76,4.57-3.08,1.29-1.11,2.01-1.67,2.15-1.67.29,0,.59.16.88.48.47.53,1.74,2.36,3.82,5.49,2.14,3.25,3.21,5.04,3.21,5.36Z"/>
      <path class="cls-1" d="M281.39,80.06c0,1.26-.54,2.08-1.63,2.46-.88.29-3.19.44-6.94.44s-6.24-.15-7.91-.44c-.79-.15-1.31-.3-1.56-.46-.25-.16-.56-.58-.94-1.25-2.14-3.93-4.26-7.85-6.37-11.78-3.49-6.33-5.57-9.81-6.24-10.46-3.16,1.14-4.75,1.96-4.75,2.46,0,2.2.09,5.52.26,9.95s.26,7.77.26,10c0,.91-.4,1.42-1.19,1.54-1.52.23-4.28.35-8.26.35s-6.33-.12-7.56-.35c-.85-.18-1.27-.63-1.27-1.36,0-3.16.15-7.94.46-14.33.31-6.39.46-11.18.46-14.37,0-3.4-.15-8.5-.44-15.31-.29-6.81-.44-11.92-.44-15.31,0-.64.31-.97.92-.97.91,0,2.28.04,4.11.13,1.83.09,3.2.13,4.11.13s2.33-.04,4.17-.13,3.22-.13,4.13-.13c.5,0,.75.26.75.79,0,2.17-.11,5.44-.33,9.82-.22,4.38-.33,7.65-.33,9.82,0,2.52.69,3.78,2.07,3.78,3.49,0,6.2-.95,8.13-2.86,1.44-1.41,2.89-3.97,4.35-7.69.94-2.84,2.48-7.03,4.61-12.57.32-.73.98-1.1,1.98-1.1.76,0,1.91.04,3.45.13s2.69.13,3.45.13,1.97-.03,3.54-.09c1.57-.06,2.73-.09,3.49-.09.7,0,1.05.34,1.05,1.01,0,.97-.62,3.33-1.85,7.08-3.63,11.07-7.81,17.99-12.52,20.74-.97.56-1.45,1.01-1.45,1.36,0-.03,2.7,4.37,8.11,13.18,5.41,8.82,8.11,14.06,8.11,15.73Z"/>
      <path class="cls-1" d="M367.74,22.22c0,3.34-.14,8.36-.42,15.05-.28,6.69-.42,11.73-.42,15.1v28.96c0,.79-.42,1.19-1.27,1.19-.7,0-1.77.03-3.19.09-1.42.06-2.48.09-3.19.09-.76,0-1.9-.06-3.43-.18s-2.67-.18-3.43-.18c-.53,0-1.16-.48-1.89-1.45-2.11-2.84-6.86-9.14-14.24-18.9-2.02-2.72-5.1-6.74-9.23-12.04-.12-.18-.34-.35-.66-.53-.23.21-.35.53-.35.97,0,3.4.09,8.5.29,15.29.19,6.8.29,11.89.29,15.29,0,1.03-.4,1.54-1.19,1.54h-15.21c-.85,0-1.27-.45-1.27-1.36,0-3.16.15-7.94.46-14.33.31-6.39.46-11.18.46-14.37,0-3.37-.14-8.41-.42-15.12-.28-6.71-.42-11.73-.42-15.07,0-.64.57-.97,1.71-.97,1.7,0,3.79-.12,6.28-.35.59-.06,1.74-.25,3.47-.57,1.46-.26,2.62-.4,3.47-.4.35,0,.89.5,1.63,1.49l16.39,22.46c1.46,2.02,3.68,4.98,6.64,8.88.73.91,1.36,1.36,1.89,1.36.38,0,.57-1.14.57-3.43,0-3.08-.17-7.71-.5-13.89-.34-6.18-.51-10.83-.51-13.93,0-1.08.31-1.63.92-1.63,1.76,0,4.41-.07,7.95-.22,3.54-.15,6.2-.22,7.95-.22.56,0,.83.45.83,1.36Z"/>
      <path class="cls-1" d="M456.24,81.11c.06.79-.35,1.19-1.23,1.19-.56,0-2.16-.32-4.81-.97-2.65-.64-4.28-1.08-4.9-1.32-6.12,2.4-12,3.6-17.62,3.6-9.05,0-16.48-3.02-22.28-9.05-5.74-5.95-8.61-13.46-8.61-22.54s2.78-16.99,8.35-23.12c5.74-6.33,13.2-9.49,22.37-9.49,4.45,0,8.64.85,12.57,2.55,4.25,1.88,7.59,4.51,10.02,7.91.5.7.75,1.2.75,1.49,0,.94-1.31,3.04-3.93,6.31-2.62,3.27-4.31,4.9-5.08,4.9-.18,0-.85-.6-2.02-1.8-1.44-1.44-2.9-2.55-4.39-3.34-2.23-1.2-4.69-1.8-7.38-1.8-4.39,0-7.88,1.64-10.46,4.92-2.4,3.02-3.6,6.78-3.6,11.29,0,4.78,1.25,8.55,3.74,11.34,2.58,2.87,6.23,4.31,10.94,4.31,2.99,0,6.33-.75,10.02-2.24-.09-.97-.35-3.43-.79-7.38-.38-3.05-.57-5.51-.57-7.38,0-.56.19-.89.57-1.01.15-.06.38-.09.7-.09.85,0,2.13.08,3.85.24,1.71.16,3.01.24,3.89.24.94,0,2.34-.07,4.22-.2s3.28-.2,4.22-.2c.73,0,1.1.48,1.1,1.45,0,1.41-.08,3.53-.24,6.37-.16,2.84-.24,4.97-.24,6.37,0,3.78.28,9.43.83,16.96l.04.48Z"/>
      <path class="cls-1" d="M523.44,51.75c0,9.14-2.92,16.8-8.75,22.98-5.95,6.27-13.48,9.4-22.59,9.4s-16.57-3.16-22.54-9.49c-5.86-6.18-8.79-13.81-8.79-22.9s2.93-16.77,8.79-22.98c5.98-6.36,13.49-9.54,22.54-9.54s16.49,3.18,22.5,9.54c5.89,6.27,8.83,13.93,8.83,22.98ZM506.78,51.67c0-4.39-1.33-8.13-4-11.21-2.78-3.22-6.34-4.83-10.68-4.83s-7.63,1.67-10.5,5.01c-2.78,3.22-4.17,6.93-4.17,11.12,0,4.48,1.3,8.22,3.91,11.21,2.75,3.14,6.34,4.7,10.77,4.7,4.13,0,7.65-1.65,10.55-4.97,2.75-3.16,4.13-6.84,4.13-11.03Z"/>
    </g>
  </g>
</svg>